<?xml version="1.0" standalone="no"?>
<!DOCTYPE svg PUBLIC "-//W3C//DTD SVG 20010904//EN"
 "http://www.w3.org/TR/2001/REC-SVG-20010904/DTD/svg10.dtd">
<svg version="1.0" xmlns="http://www.w3.org/2000/svg"
 width="284.000000pt" height="284.000000pt" viewBox="0 0 284.000000 284.000000"
 preserveAspectRatio="xMidYMid meet">
<metadata>
Created by potrace 1.11, written by Peter Selinger 2001-2013
</metadata>
<g transform="translate(0.000000,284.000000) scale(0.100000,-0.100000)"
fill="#000000" stroke="none">
<path d="M1688 2418 c-72 -71 -171 -196 -163 -207 2 -4 -41 -6 -96 -6 -96 0
-99 1 -109 25 -6 14 -58 63 -116 109 -119 96 -150 105 -191 57 -45 -53 -32
-80 79 -171 46 -38 87 -72 92 -76 5 -4 -16 -31 -46 -58 -79 -73 -150 -182
-189 -293 -7 -21 -16 -38 -19 -38 -6 0 -34 42 -35 52 0 8 -116 129 -137 143
-8 6 -39 26 -69 46 -49 33 -161 81 -220 95 -37 9 -258 12 -288 5 -27 -8 -38
-37 -26 -69 3 -9 6 -18 6 -20 -3 -7 55 -112 78 -140 113 -142 230 -216 431
-270 14 -4 71 -7 127 -6 62 0 100 -3 96 -9 -11 -18 -13 -252 -2 -327 39 -283
177 -510 368 -604 61 -30 69 -38 108 -106 l41 -73 35 54 c19 30 39 63 45 74 6
11 43 33 84 49 61 25 86 42 153 110 65 66 89 99 127 176 74 152 106 298 106
481 0 51 -3 114 -7 141 l-8 48 61 -58 c34 -32 75 -67 91 -78 17 -10 32 -21 35
-25 11 -14 177 -81 200 -81 14 0 34 -5 44 -10 18 -10 149 -12 194 -3 35 6 43
15 39 43 -5 39 -73 179 -109 226 -39 49 -146 156 -157 156 -5 0 -14 7 -21 15
-19 22 -220 113 -220 99 0 -3 -9 0 -19 6 -20 10 -145 23 -213 22 -31 0 -38 4
-49 30 -7 17 -47 66 -88 109 l-76 78 25 28 c148 168 156 180 145 221 -17 66
-84 81 -137 30z"/>
</g>
</svg>
