<svg width="512" height="512" viewBox="0 0 512 512" fill="none" xmlns="http://www.w3.org/2000/svg">
    <g id="paper-plane 1">
        <g id="Group">
            <circle id="circle" cx="256" cy="256" r="256" fill="url(#paint0_linear)" />
            <g id="plane">
                <g id="Vector">
                    <path d="M462.409 75.155L242.847 390.775L139.609 372.39L457.101 53.485L460.81 57.194C465.62 62.005 466.294 69.57 462.409 75.155Z" fill="#1380E2" />
                    <path d="M139.609 372.39L121.225 269.152L436.767 49.645C442.397 45.729 450.023 46.408 454.873 51.257L458.515 54.899L139.609 372.39ZM242.847 390.775L263.045 370.577L213.856 333.5L242.847 390.775Z" fill="#1380E2" />
                </g>
                <path id="Vector_2" d="M454.998 51.383L184.176 303.82L68.873 188.517C63.654 183.298 65.694 174.417 72.667 171.998L434.216 46.609C441.486 44.088 449.557 45.942 454.998 51.383V51.383ZM460.617 57.002L213.837 333.48L323.483 443.126C328.702 448.345 337.583 446.305 340.002 439.332L465.391 77.784C467.912 70.514 466.058 62.443 460.617 57.002V57.002Z" fill="#A7D0FC" />
            </g>
            <path id="wind" d="M199.979 352.149L130.682 421.445C129.706 422.422 128.426 422.91 127.147 422.91C125.868 422.91 124.587 422.422 123.612 421.445C121.659 419.493 121.659 416.327 123.612 414.375L192.909 345.079C194.86 343.126 198.028 343.126 199.979 345.079C201.932 347.031 201.932 350.197 199.979 352.149ZM206.519 375.661C204.568 373.708 201.4 373.708 199.449 375.661L164.095 411.016C162.142 412.968 162.142 416.134 164.095 418.086C165.071 419.063 166.351 419.551 167.63 419.551C168.909 419.551 170.19 419.063 171.165 418.086L206.519 382.731C208.472 380.779 208.472 377.613 206.519 375.661ZM149.95 425.158L135.808 439.301C133.856 441.253 133.856 444.419 135.809 446.372C136.786 447.348 138.065 447.836 139.344 447.836C140.623 447.836 141.904 447.348 142.88 446.371L157.022 432.228C158.974 430.276 158.974 427.11 157.021 425.157C155.068 423.206 151.903 423.205 149.95 425.158ZM194.765 414.816L180.622 428.958C178.669 430.911 178.669 434.077 180.621 436.029C181.598 437.006 182.878 437.494 184.157 437.494C185.436 437.494 186.717 437.006 187.692 436.03L201.835 421.888C203.788 419.935 203.788 416.769 201.836 414.817C199.883 412.864 196.716 412.865 194.765 414.816Z" fill="white" />
        </g>
    </g>
    <defs>
        <linearGradient id="paint0_linear" x1="101" y1="462" x2="437" y2="79" gradientUnits="userSpaceOnUse">
            <stop stop-color="#FF007A" />
            <stop offset="1" stop-color="#00D1FF" />
        </linearGradient>
    </defs>
</svg>
